<svg xmlns="http://www.w3.org/2000/svg" viewBox="0 0 412 244" width="412" height="244"><g transform="translate(146.0 0) scale(1.2)"><defs><linearGradient id="leafGrad" x1="0" y1="0" x2="0.6" y2="1"><stop offset="0" stop-color="#7cc38f"/><stop offset=".55" stop-color="#2f8a57"/><stop offset="1" stop-color="#1b4d36"/></linearGradient></defs><path d="M50 6 C74 22 84 44 78 62 C73 76 62 84 50 86 C38 84 27 76 22 62 C16 44 26 22 50 6 Z" fill="url(#leafGrad)"/><path d="M30 53 L50 34 L70 53" fill="none" stroke="#ffffff" stroke-width="6" stroke-linecap="round" stroke-linejoin="round"/><path d="M37 50 V69 H63 V50" fill="none" stroke="#ffffff" stroke-width="4.4" stroke-linecap="round" stroke-linejoin="round"/><circle cx="50" cy="60" r="3.8" fill="#ffffff"/><path d="M43.5 53.5 A9 9 0 0 1 56.5 53.5" fill="none" stroke="#ffffff" stroke-width="3" stroke-linecap="round"/><path d="M50 69 V77" fill="none" stroke="#ffffff" stroke-width="3.6" stroke-linecap="round"/><circle cx="50" cy="79.5" r="3" fill="#ffffff"/><path d="M16 80 C30 98 70 98 84 80" fill="none" stroke="#7cc38f" stroke-width="6" stroke-linecap="round"/></g><path transform="translate(78.918 196)" d="M18.919999999999998 -32.339999999999996H30.624Q34.275999999999996 -32.339999999999996 35.97 -33.989999999999995Q37.663999999999994 -35.64 38.192 -40.04Q38.236 -40.303999999999995 38.324 -40.391999999999996Q38.412 -40.48 38.5 -40.48Q38.808 -40.48 38.94 -39.952L43.559999999999995 -24.727999999999998Q43.604 -24.508 43.56 -24.354Q43.516 -24.2 43.384 -24.2Q43.296 -24.156 43.164 -24.156Q43.032 -24.156 42.855999999999995 -24.331999999999997Q40.876 -27.235999999999997 39.269999999999996 -28.775999999999996Q37.663999999999994 -30.316 35.903999999999996 -30.909999999999997Q34.144 -31.503999999999998 31.767999999999997 -31.503999999999998H18.919999999999998ZM2.992 -61.336Q2.992 -61.424 3.102 -61.512Q3.2119999999999997 -61.599999999999994 3.432 -61.599999999999994H41.096Q42.064 -61.599999999999994 42.878 -61.885999999999996Q43.692 -62.172 44.242 -62.458Q44.791999999999994 -62.744 44.967999999999996 -62.744Q45.056 -62.744 45.122 -62.611999999999995Q45.187999999999995 -62.48 45.364 -61.864L49.279999999999994 -46.199999999999996Q49.324 -45.891999999999996 49.28 -45.782Q49.236 -45.672 49.104 -45.583999999999996Q49.016 -45.583999999999996 48.906 -45.628Q48.796 -45.672 48.663999999999994 -45.891999999999996Q45.715999999999994 -50.467999999999996 43.384 -53.372Q41.052 -56.275999999999996 39.093999999999994 -57.903999999999996Q37.135999999999996 -59.532 35.266 -60.126Q33.396 -60.72 31.372 -60.72H21.119999999999997V-2.816Q21.119999999999997 -1.8039999999999998 21.669999999999998 -1.3419999999999999Q22.22 -0.8799999999999999 23.32 -0.8799999999999999H31.9Q34.54 -0.8799999999999999 37.025999999999996 -2.266Q39.512 -3.6519999999999997 42.548 -7.699999999999999Q45.583999999999996 -11.748 49.72 -19.535999999999998Q49.852 -19.712 49.961999999999996 -19.822Q50.071999999999996 -19.932 50.204 -19.843999999999998Q50.379999999999995 -19.843999999999998 50.402 -19.668Q50.424 -19.491999999999997 50.336 -19.183999999999997L45.715999999999994 0.264Q45.583999999999996 0.836 45.495999999999995 1.012Q45.407999999999994 1.188 45.32 1.188Q45.056 1.188 44.483999999999995 0.8799999999999999Q43.912 0.572 42.988 0.286Q42.064 0.0 40.744 0.0H3.432Q3.2119999999999997 0.0 3.102 -0.088Q2.992 -0.176 2.992 -0.264Q2.992 -0.572 3.5199999999999996 -0.616L7.127999999999999 -1.144Q7.9639999999999995 -1.276 8.382 -1.5619999999999998Q8.799999999999999 -1.8479999999999999 8.799999999999999 -2.376V-59.224Q8.799999999999999 -59.751999999999995 8.382 -60.038Q7.9639999999999995 -60.324 7.127999999999999 -60.455999999999996L3.5199999999999996 -60.983999999999995Q2.992 -61.028 2.992 -61.336ZM72.904 0.088H68.50399999999999Q68.24 0.088 67.99799999999999 -0.044Q67.756 -0.176 67.624 -0.528L54.424 -35.552Q54.116 -36.388 53.72 -36.916Q53.324 -37.443999999999996 52.664 -37.576L50.86 -37.972Q50.596 -38.016 50.464 -38.126Q50.332 -38.236 50.332 -38.324Q50.332 -38.5 50.442 -38.566Q50.552 -38.632 50.64 -38.632H70.396Q70.792 -38.632 70.792 -38.324Q70.792 -38.192 70.682 -38.126Q70.572 -38.059999999999995 70.30799999999999 -38.016L68.196 -37.576Q65.996 -37.18 65.53399999999999 -36.519999999999996Q65.072 -35.86 65.512 -34.583999999999996L75.588 -7.26L73.608 -3.2119999999999997L84.21199999999999 -33.396Q84.828 -35.111999999999995 84.212 -36.16799999999999Q83.596 -37.224 81.66 -37.576L79.328 -38.016Q79.064 -38.059999999999995 78.954 -38.147999999999996Q78.844 -38.236 78.844 -38.324Q78.844 -38.5 78.954 -38.566Q79.064 -38.632 79.24 -38.632H90.50399999999999Q90.67999999999999 -38.632 90.768 -38.566Q90.856 -38.5 90.856 -38.324Q90.856 -38.192 90.746 -38.126Q90.636 -38.059999999999995 90.28399999999999 -37.972L88.832 -37.663999999999994Q87.6 -37.355999999999995 86.80799999999999 -36.431999999999995Q86.01599999999999 -35.507999999999996 85.356 -33.571999999999996L73.696 -0.484Q73.608 -0.176 73.388 -0.044Q73.16799999999999 0.088 72.904 0.088ZM125.03999999999999 -22.747999999999998Q125.03999999999999 -22.395999999999997 124.798 -22.131999999999998Q124.556 -21.868 124.072 -21.868H96.74799999999999V-22.66H113.82Q114.568 -22.66 114.568 -23.496Q114.568 -31.328 112.47800000000001 -35.068Q110.388 -38.808 107.396 -38.808Q104.932 -38.808 103.128 -37.114Q101.324 -35.419999999999995 100.334 -31.943999999999996Q99.344 -28.468 99.344 -23.099999999999998Q99.344 -14.036 103.14999999999999 -9.504Q106.95599999999999 -4.9719999999999995 113.072 -4.9719999999999995Q117.604 -4.9719999999999995 120.72800000000001 -7.502Q123.852 -10.032 124.292 -14.344Q124.292 -14.52 124.38 -14.585999999999999Q124.46799999999999 -14.652 124.46799999999999 -14.652Q124.6 -14.652 124.71 -14.564Q124.82 -14.475999999999999 124.776 -14.212Q124.512 -9.899999999999999 122.268 -6.467999999999999Q120.024 -3.036 116.306 -1.078Q112.588 0.8799999999999999 107.92399999999999 0.8799999999999999Q102.468 0.8799999999999999 98.354 -1.518Q94.24 -3.916 91.90799999999999 -8.315999999999999Q89.576 -12.716 89.576 -18.523999999999997Q89.576 -24.816 91.952 -29.524Q94.328 -34.232 98.618 -36.872Q102.908 -39.512 108.672 -39.512Q113.644 -39.512 117.318 -37.334Q120.99199999999999 -35.156 123.01599999999999 -31.349999999999998Q125.03999999999999 -27.543999999999997 125.03999999999999 -22.747999999999998ZM140.524 -21.956Q140.524 -27.764 142.21800000000002 -31.658Q143.912 -35.552 146.53 -37.51Q149.148 -39.467999999999996 151.964 -39.467999999999996Q155.22 -39.467999999999996 156.98000000000002 -37.422Q158.74 -35.376 158.74 -31.636Q158.74 -28.336 157.2 -26.729999999999997Q155.66 -25.124 153.372 -25.124Q151.216 -25.124 150.18200000000002 -26.311999999999998Q149.148 -27.5 149.016 -29.875999999999998L148.972 -31.284Q148.972 -32.604 148.42200000000003 -33.308Q147.872 -34.012 146.64 -34.012Q145.188 -34.012 143.934 -32.67Q142.68 -31.328 141.86599999999999 -28.578Q141.052 -25.828 141.052 -21.692ZM141.052 -38.588V-23.979999999999997V-2.6839999999999997Q141.052 -2.1999999999999997 141.338 -1.8039999999999998Q141.624 -1.408 142.196 -1.276L146.508 -0.616Q146.772 -0.572 146.838 -0.506Q146.904 -0.43999999999999995 146.904 -0.264Q146.904 -0.176 146.79399999999998 -0.088Q146.684 0.0 146.508 0.0H127.016Q126.796 0.0 126.664 -0.10999999999999999Q126.532 -0.21999999999999997 126.532 -0.264Q126.532 -0.43999999999999995 126.686 -0.528Q126.84 -0.616 127.104 -0.6599999999999999L129.48 -1.012Q130.052 -1.144 130.29399999999998 -1.4739999999999998Q130.536 -1.8039999999999998 130.536 -2.2439999999999998V-34.716Q130.536 -34.98 130.426 -35.156Q130.316 -35.332 130.008 -35.332H126.97200000000001Q126.884 -35.376 126.774 -35.464Q126.664 -35.552 126.664 -35.64Q126.664 -35.772 126.75200000000001 -35.882Q126.84 -35.992 127.104 -35.992L139.688 -38.983999999999995Q140.04 -39.116 140.216 -39.138Q140.392 -39.16 140.612 -39.16Q140.876 -39.16 140.964 -38.983999999999995Q141.052 -38.808 141.052 -38.588ZM194.77200000000002 -22.747999999999998Q194.77200000000002 -22.395999999999997 194.53000000000003 -22.131999999999998Q194.288 -21.868 193.804 -21.868H166.48000000000002V-22.66H183.55200000000002Q184.3 -22.66 184.3 -23.496Q184.3 -31.328 182.21 -35.068Q180.12 -38.808 177.12800000000001 -38.808Q174.66400000000002 -38.808 172.86 -37.114Q171.056 -35.419999999999995 170.06600000000003 -31.943999999999996Q169.07600000000002 -28.468 169.07600000000002 -23.099999999999998Q169.07600000000002 -14.036 172.882 -9.504Q176.68800000000002 -4.9719999999999995 182.804 -4.9719999999999995Q187.336 -4.9719999999999995 190.46 -7.502Q193.584 -10.032 194.024 -14.344Q194.024 -14.52 194.11200000000002 -14.585999999999999Q194.20000000000002 -14.652 194.20000000000002 -14.652Q194.332 -14.652 194.442 -14.564Q194.55200000000002 -14.475999999999999 194.508 -14.212Q194.244 -9.899999999999999 192.0 -6.467999999999999Q189.756 -3.036 186.038 -1.078Q182.32000000000002 0.8799999999999999 177.656 0.8799999999999999Q172.20000000000002 0.8799999999999999 168.086 -1.518Q163.972 -3.916 161.64000000000001 -8.315999999999999Q159.30800000000002 -12.716 159.30800000000002 -18.523999999999997Q159.30800000000002 -24.816 161.68400000000003 -29.524Q164.06 -34.232 168.35000000000002 -36.872Q172.64000000000001 -39.512 178.404 -39.512Q183.376 -39.512 187.05 -37.334Q190.72400000000002 -35.156 192.74800000000002 -31.349999999999998Q194.77200000000002 -27.543999999999997 194.77200000000002 -22.747999999999998ZM212.808 0.0Q215.844 0.0 217.62599999999998 -1.6059999999999999Q219.408 -3.2119999999999997 219.408 -5.763999999999999Q219.408 -7.568 218.572 -9.02Q217.736 -10.472 215.73399999999998 -11.704Q213.732 -12.936 210.256 -14.036Q205.064 -15.751999999999999 202.094 -17.798Q199.124 -19.843999999999998 197.892 -22.374Q196.66 -24.904 196.66 -28.116Q196.66 -33.616 200.39999999999998 -36.608Q204.14 -39.599999999999994 210.388 -39.599999999999994Q213.072 -39.599999999999994 214.788 -39.093999999999994Q216.504 -38.588 217.45 -38.06Q218.39600000000002 -37.532 218.66 -37.532Q219.056 -37.532 220.178 -38.06Q221.3 -38.588 222.378 -39.093999999999994Q223.456 -39.599999999999994 223.764 -39.599999999999994Q223.94 -39.599999999999994 224.094 -39.53399999999999Q224.248 -39.467999999999996 224.292 -39.116L226.624 -26.444Q226.712 -26.136 226.668 -25.894Q226.624 -25.651999999999997 226.492 -25.564Q226.316 -25.52 226.20600000000002 -25.607999999999997Q226.096 -25.695999999999998 225.964 -25.784Q223.456 -30.712 221.07999999999998 -33.55Q218.704 -36.388 216.21800000000002 -37.598Q213.732 -38.808 210.784 -38.808Q207.484 -38.808 205.68 -37.158Q203.876 -35.507999999999996 203.876 -32.692Q203.876 -30.887999999999998 204.734 -29.391999999999996Q205.592 -27.895999999999997 207.77 -26.641999999999996Q209.948 -25.387999999999998 213.996 -24.2Q218.61599999999999 -22.88 221.432 -20.944Q224.248 -19.008 225.502 -16.477999999999998Q226.756 -13.947999999999999 226.756 -10.867999999999999Q226.756 -7.303999999999999 225.018 -4.664Q223.28 -2.024 220.31 -0.5940000000000001Q217.34 0.836 213.6 0.836Q211.18 0.836 209.42000000000002 0.15399999999999997Q207.66 -0.528 206.582 -1.21Q205.504 -1.892 205.284 -1.892Q204.976 -1.892 204.052 -1.254Q203.128 -0.616 202.13799999999998 0.0Q201.148 0.616 200.796 0.616Q200.576 0.616 200.378 0.418Q200.18 0.21999999999999997 200.092 -0.21999999999999997L198.156 -11.088Q198.112 -11.527999999999999 198.156 -11.77Q198.2 -12.011999999999999 198.332 -12.056Q198.42 -12.144 198.552 -12.056000000000001Q198.684 -11.968 198.772 -11.835999999999999Q202.292 -5.412 205.812 -2.706Q209.332 0.0 212.808 0.0ZM232.33999999999997 -37.224 228.512 -37.972Q228.292 -38.059999999999995 228.182 -38.126Q228.07199999999997 -38.192 228.07199999999997 -38.324Q228.07199999999997 -38.412 228.182 -38.522Q228.292 -38.632 228.38 -38.632H232.208Q232.516 -38.632 232.692 -38.72Q232.868 -38.808 233.088 -39.028L241.57999999999998 -47.388Q241.844 -47.564 242.08599999999998 -47.718Q242.32799999999997 -47.872 242.504 -47.872Q242.76799999999997 -47.872 242.89999999999998 -47.696Q243.03199999999998 -47.519999999999996 243.03199999999998 -47.211999999999996V-10.164Q243.03199999999998 -6.6 244.396 -4.862Q245.76 -3.1239999999999997 248.09199999999998 -3.1239999999999997Q248.928 -3.1239999999999997 249.69799999999998 -3.3659999999999997Q250.468 -3.6079999999999997 251.106 -4.135999999999999Q251.74399999999997 -4.664 252.24999999999997 -5.587999999999999Q252.75599999999997 -6.512 253.10799999999998 -7.787999999999999Q253.196 -8.052 253.394 -8.008Q253.59199999999998 -7.9639999999999995 253.504 -7.699999999999999Q252.79999999999998 -4.84 251.546 -2.948Q250.29199999999997 -1.056 248.33399999999997 -0.13200000000000006Q246.37599999999998 0.7919999999999999 243.60399999999998 0.7919999999999999Q238.456 0.7919999999999999 235.68399999999997 -1.6280000000000001Q232.91199999999998 -4.048 232.91199999999998 -9.064V-36.344Q232.91199999999998 -36.739999999999995 232.80199999999996 -36.937999999999995Q232.69199999999998 -37.135999999999996 232.33999999999997 -37.224ZM239.82 -37.708 240.128 -38.632H253.196Q253.416 -38.632 253.504 -38.544Q253.59199999999998 -38.455999999999996 253.59199999999998 -38.324Q253.59199999999998 -38.059999999999995 253.32799999999997 -37.884Q253.064 -37.708 252.536 -37.708Z" fill="#1b4d36"/><path transform="translate(9.935000000000002 232)" d="M6.359999999999999 0.18Q5.16 0.18 4.125 -0.255Q3.09 -0.69 2.31 -1.47Q1.53 -2.25 1.095 -3.3Q0.6599999999999999 -4.35 0.6599999999999999 -5.595Q0.6599999999999999 -6.84 1.08 -7.8975Q1.5 -8.955 2.2649999999999997 -9.7275Q3.03 -10.5 4.0575 -10.9275Q5.085 -11.355 6.3 -11.355Q7.515 -11.355 8.4825 -10.95Q9.45 -10.545 10.125 -9.870000000000001Q10.799999999999999 -9.195 11.084999999999999 -8.37L9.03 -7.38Q8.745 -8.19 8.032499999999999 -8.7225Q7.319999999999999 -9.254999999999999 6.3 -9.254999999999999Q5.31 -9.254999999999999 4.56 -8.79Q3.81 -8.325 3.3975 -7.507499999999999Q2.985 -6.6899999999999995 2.985 -5.595Q2.985 -4.5 3.42 -3.675Q3.855 -2.85 4.6125 -2.385Q5.37 -1.92 6.359999999999999 -1.92Q7.125 -1.92 7.7924999999999995 -2.2125Q8.459999999999999 -2.505 8.872499999999999 -3.0599999999999996Q9.285 -3.6149999999999998 9.285 -4.395V-5.325L10.35 -4.425H6.3V-6.375H11.61V-5.1899999999999995Q11.61 -3.8249999999999997 11.16 -2.8125Q10.709999999999999 -1.7999999999999998 9.9525 -1.1324999999999998Q9.195 -0.46499999999999997 8.2575 -0.1425Q7.319999999999999 0.18 6.359999999999999 0.18ZM16.049999999999997 0.0V-11.174999999999999H20.325Q21.479999999999997 -11.174999999999999 22.3725 -10.77Q23.265 -10.365 23.775 -9.57Q24.284999999999997 -8.775 24.284999999999997 -7.6049999999999995Q24.284999999999997 -6.465 23.759999999999998 -5.6625Q23.235 -4.859999999999999 22.349999999999998 -4.455L24.9 0.0H22.29L19.529999999999998 -4.935L21.029999999999998 -4.05H18.375V0.0ZM18.375 -6.075H20.339999999999996Q20.834999999999997 -6.075 21.195 -6.27Q21.555 -6.465 21.7575 -6.81Q21.959999999999997 -7.154999999999999 21.959999999999997 -7.6049999999999995Q21.959999999999997 -8.07 21.7575 -8.415Q21.555 -8.76 21.195 -8.955Q20.834999999999997 -9.15 20.339999999999996 -9.15H18.375ZM29.054999999999996 0.0V-11.174999999999999H36.56999999999999V-9.15H31.38V-6.614999999999999H36.269999999999996V-4.59H31.38V-2.025H36.56999999999999V0.0ZM40.89 0.0V-11.174999999999999H48.405V-9.15H43.214999999999996V-6.614999999999999H48.105V-4.59H43.214999999999996V-2.025H48.405V0.0ZM52.725 0.0V-11.174999999999999H54.51L60.51 -3.27L59.55 -3.045V-11.174999999999999H61.875V0.0H60.075L54.18 -7.965L55.05 -8.19V0.0ZM73.5 -2.9699999999999998V-5.22H75.75V-2.9699999999999998ZM91.44 0.18Q90.39 0.18 89.4675 -0.20249999999999999Q88.545 -0.585 87.8775 -1.29Q87.21000000000001 -1.9949999999999999 86.88000000000001 -2.955L88.78500000000001 -3.81Q89.205 -2.895 89.94749999999999 -2.37Q90.69 -1.845 91.59 -1.845Q92.07000000000001 -1.845 92.415 -1.995Q92.76 -2.145 92.95500000000001 -2.4074999999999998Q93.15 -2.67 93.15 -3.03Q93.15 -3.42 92.91 -3.6975Q92.67 -3.9749999999999996 92.16000000000001 -4.14L89.97 -4.859999999999999Q88.635 -5.295 87.96000000000001 -6.0975Q87.28500000000001 -6.8999999999999995 87.28500000000001 -8.025Q87.28500000000001 -9.014999999999999 87.77250000000001 -9.764999999999999Q88.26 -10.514999999999999 89.1375 -10.934999999999999Q90.015 -11.355 91.155 -11.355Q92.16000000000001 -11.355 93.01500000000001 -11.01Q93.87 -10.665 94.4925 -10.035Q95.11500000000001 -9.405 95.43 -8.52L93.54 -7.665Q93.22500000000001 -8.445 92.595 -8.8875Q91.965 -9.33 91.155 -9.33Q90.69 -9.33 90.33 -9.18Q89.97 -9.03 89.775 -8.7525Q89.58 -8.475 89.58 -8.115Q89.58 -7.725 89.83500000000001 -7.432499999999999Q90.09 -7.14 90.60000000000001 -6.975L92.745 -6.285Q94.095 -5.85 94.7625 -5.07Q95.43 -4.29 95.43 -3.165Q95.43 -2.19 94.92000000000002 -1.4324999999999999Q94.41000000000001 -0.6749999999999999 93.51750000000001 -0.24749999999999997Q92.625 0.18 91.44 0.18ZM100.08 0.0V-11.174999999999999H102.33L106.515 -5.625H105.465L109.53 -11.174999999999999H111.78V0.0H109.455V-8.61L110.385 -8.4L106.08 -2.85H105.78L101.625 -8.4L102.405 -8.61V0.0ZM115.93500000000002 0.0 119.715 -11.174999999999999H122.805L126.58500000000001 0.0H124.05000000000001L123.30000000000001 -2.28H119.20500000000001L118.45500000000001 0.0ZM119.85000000000001 -4.305H122.65500000000002L120.94500000000001 -9.584999999999999H121.57500000000002ZM130.74 0.0V-11.174999999999999H135.015Q136.17 -11.174999999999999 137.0625 -10.77Q137.955 -10.365 138.465 -9.57Q138.975 -8.775 138.975 -7.6049999999999995Q138.975 -6.465 138.45 -5.6625Q137.925 -4.859999999999999 137.04 -4.455L139.59 0.0H136.98L134.22 -4.935L135.72 -4.05H133.065V0.0ZM133.065 -6.075H135.03Q135.525 -6.075 135.885 -6.27Q136.245 -6.465 136.4475 -6.81Q136.65 -7.154999999999999 136.65 -7.6049999999999995Q136.65 -8.07 136.4475 -8.415Q136.245 -8.76 135.885 -8.955Q135.525 -9.15 135.03 -9.15H133.065ZM145.755 0.0V-9.15H142.92V-11.174999999999999H150.87V-9.15H148.07999999999998V0.0ZM161.67 -2.9699999999999998V-5.22H163.92V-2.9699999999999998ZM179.60999999999999 0.18Q178.55999999999997 0.18 177.6375 -0.20249999999999999Q176.71499999999997 -0.585 176.04749999999996 -1.29Q175.37999999999997 -1.9949999999999999 175.04999999999998 -2.955L176.95499999999998 -3.81Q177.37499999999997 -2.895 178.11749999999998 -2.37Q178.85999999999999 -1.845 179.76 -1.845Q180.23999999999998 -1.845 180.58499999999998 -1.995Q180.92999999999998 -2.145 181.12499999999997 -2.4074999999999998Q181.31999999999996 -2.67 181.31999999999996 -3.03Q181.31999999999996 -3.42 181.07999999999998 -3.6975Q180.83999999999997 -3.9749999999999996 180.32999999999998 -4.14L178.14 -4.859999999999999Q176.80499999999998 -5.295 176.13 -6.0975Q175.45499999999998 -6.8999999999999995 175.45499999999998 -8.025Q175.45499999999998 -9.014999999999999 175.9425 -9.764999999999999Q176.42999999999998 -10.514999999999999 177.30749999999998 -10.934999999999999Q178.18499999999997 -11.355 179.325 -11.355Q180.32999999999998 -11.355 181.18499999999997 -11.01Q182.03999999999996 -10.665 182.66249999999997 -10.035Q183.28499999999997 -9.405 183.59999999999997 -8.52L181.70999999999998 -7.665Q181.39499999999998 -8.445 180.765 -8.8875Q180.135 -9.33 179.325 -9.33Q178.85999999999999 -9.33 178.5 -9.18Q178.14 -9.03 177.945 -8.7525Q177.74999999999997 -8.475 177.74999999999997 -8.115Q177.74999999999997 -7.725 178.005 -7.432499999999999Q178.26 -7.14 178.76999999999998 -6.975L180.91499999999996 -6.285Q182.265 -5.85 182.93249999999998 -5.07Q183.59999999999997 -4.29 183.59999999999997 -3.165Q183.59999999999997 -2.19 183.08999999999997 -1.4324999999999999Q182.57999999999998 -0.6749999999999999 181.6875 -0.24749999999999997Q180.795 0.18 179.60999999999999 0.18ZM192.69 0.18Q191.37 0.18 190.33499999999998 -0.375Q189.29999999999998 -0.9299999999999999 188.70749999999998 -1.8975Q188.11499999999998 -2.8649999999999998 188.11499999999998 -4.095V-11.174999999999999H190.44V-4.245Q190.44 -3.585 190.7325 -3.0525Q191.02499999999998 -2.52 191.53499999999997 -2.2199999999999998Q192.045 -1.92 192.69 -1.92Q193.35 -1.92 193.8525 -2.2199999999999998Q194.355 -2.52 194.64749999999998 -3.0525Q194.94 -3.585 194.94 -4.245V-11.174999999999999H197.265V-4.095Q197.265 -2.8649999999999998 196.67249999999999 -1.8975Q196.07999999999998 -0.9299999999999999 195.045 -0.375Q194.01 0.18 192.69 0.18ZM206.175 0.18Q205.125 0.18 204.2025 -0.20249999999999999Q203.28 -0.585 202.6125 -1.29Q201.945 -1.9949999999999999 201.615 -2.955L203.52 -3.81Q203.94 -2.895 204.6825 -2.37Q205.425 -1.845 206.32500000000002 -1.845Q206.805 -1.845 207.15 -1.995Q207.495 -2.145 207.69 -2.4074999999999998Q207.885 -2.67 207.885 -3.03Q207.885 -3.42 207.64499999999998 -3.6975Q207.405 -3.9749999999999996 206.895 -4.14L204.705 -4.859999999999999Q203.37 -5.295 202.695 -6.0975Q202.02 -6.8999999999999995 202.02 -8.025Q202.02 -9.014999999999999 202.5075 -9.764999999999999Q202.995 -10.514999999999999 203.8725 -10.934999999999999Q204.75 -11.355 205.89000000000001 -11.355Q206.895 -11.355 207.75 -11.01Q208.60500000000002 -10.665 209.22750000000002 -10.035Q209.85 -9.405 210.165 -8.52L208.275 -7.665Q207.96 -8.445 207.33 -8.8875Q206.70000000000002 -9.33 205.89000000000001 -9.33Q205.425 -9.33 205.065 -9.18Q204.705 -9.03 204.51 -8.7525Q204.315 -8.475 204.315 -8.115Q204.315 -7.725 204.57 -7.432499999999999Q204.82500000000002 -7.14 205.335 -6.975L207.48000000000002 -6.285Q208.83 -5.85 209.4975 -5.07Q210.165 -4.29 210.165 -3.165Q210.165 -2.19 209.655 -1.4324999999999999Q209.145 -0.6749999999999999 208.2525 -0.24749999999999997Q207.36 0.18 206.175 0.18ZM216.82500000000002 0.0V-9.15H213.99V-11.174999999999999H221.94000000000003V-9.15H219.15V0.0ZM225.27 0.0 229.05 -11.174999999999999H232.14000000000001L235.92000000000002 0.0H233.38500000000002L232.63500000000002 -2.28H228.54000000000002L227.79000000000002 0.0ZM229.18500000000003 -4.305H231.99L230.28000000000003 -9.584999999999999H230.91000000000003ZM240.07500000000002 0.0V-11.174999999999999H242.4V0.0ZM247.38000000000002 0.0V-11.174999999999999H249.16500000000002L255.16500000000002 -3.27L254.205 -3.045V-11.174999999999999H256.53000000000003V0.0H254.73000000000002L248.835 -7.965L249.705 -8.19V0.0ZM260.68500000000006 0.0 264.46500000000003 -11.174999999999999H267.55500000000006L271.33500000000004 0.0H268.8L268.05 -2.28H263.95500000000004L263.20500000000004 0.0ZM264.6 -4.305H267.40500000000003L265.69500000000005 -9.584999999999999H266.32500000000005ZM275.49000000000007 0.0V-11.174999999999999H280.21500000000003Q281.37000000000006 -11.174999999999999 282.19500000000005 -10.785Q283.02000000000004 -10.395 283.45500000000004 -9.6675Q283.89000000000004 -8.94 283.89000000000004 -7.904999999999999Q283.89000000000004 -7.17 283.485 -6.5024999999999995Q283.08000000000004 -5.835 282.15000000000003 -5.385V-6.5249999999999995Q283.0350000000001 -6.18 283.5150000000001 -5.699999999999999Q283.99500000000006 -5.22 284.17500000000007 -4.6575Q284.3550000000001 -4.095 284.3550000000001 -3.48Q284.3550000000001 -1.8299999999999998 283.2600000000001 -0.9149999999999999Q282.1650000000001 0.0 280.21500000000003 0.0ZM277.81500000000005 -2.025H280.48500000000007Q281.19000000000005 -2.025 281.61 -2.4299999999999997Q282.03000000000003 -2.835 282.03000000000003 -3.48Q282.03000000000003 -4.14 281.61 -4.545Q281.19000000000005 -4.95 280.48500000000007 -4.95H277.81500000000005ZM277.81500000000005 -6.975H280.38000000000005Q280.9200000000001 -6.975 281.24250000000006 -7.2825Q281.56500000000005 -7.59 281.56500000000005 -8.1Q281.56500000000005 -8.61 281.24250000000006 -8.9175Q280.9200000000001 -9.225 280.38000000000005 -9.225H277.81500000000005ZM288.8400000000001 0.0V-11.174999999999999H291.1650000000001V-2.025H295.8900000000001V0.0ZM300.0450000000001 0.0V-11.174999999999999H307.56000000000006V-9.15H302.37000000000006V-6.614999999999999H307.26000000000005V-4.59H302.37000000000006V-2.025H307.56000000000006V0.0ZM321.64500000000004 0.18Q320.595 0.18 319.6725 -0.20249999999999999Q318.75000000000006 -0.585 318.08250000000004 -1.29Q317.415 -1.9949999999999999 317.08500000000004 -2.955L318.99 -3.81Q319.41 -2.895 320.15250000000003 -2.37Q320.89500000000004 -1.845 321.795 -1.845Q322.27500000000003 -1.845 322.62 -1.995Q322.96500000000003 -2.145 323.16 -2.4074999999999998Q323.355 -2.67 323.355 -3.03Q323.355 -3.42 323.115 -3.6975Q322.87500000000006 -3.9749999999999996 322.365 -4.14L320.175 -4.859999999999999Q318.84000000000003 -5.295 318.165 -6.0975Q317.49 -6.8999999999999995 317.49 -8.025Q317.49 -9.014999999999999 317.9775 -9.764999999999999Q318.46500000000003 -10.514999999999999 319.34250000000003 -10.934999999999999Q320.22 -11.355 321.36 -11.355Q322.365 -11.355 323.22 -11.01Q324.07500000000005 -10.665 324.69750000000005 -10.035Q325.32000000000005 -9.405 325.63500000000005 -8.52L323.745 -7.665Q323.43 -8.445 322.8 -8.8875Q322.17 -9.33 321.36 -9.33Q320.89500000000004 -9.33 320.535 -9.18Q320.175 -9.03 319.98 -8.7525Q319.785 -8.475 319.785 -8.115Q319.785 -7.725 320.04 -7.432499999999999Q320.295 -7.14 320.805 -6.975L322.95000000000005 -6.285Q324.3 -5.85 324.96750000000003 -5.07Q325.63500000000005 -4.29 325.63500000000005 -3.165Q325.63500000000005 -2.19 325.125 -1.4324999999999999Q324.615 -0.6749999999999999 323.7225 -0.24749999999999997Q322.83000000000004 0.18 321.64500000000004 0.18ZM330.285 0.0V-11.174999999999999H334.575Q335.73 -11.174999999999999 336.6225 -10.77Q337.515 -10.365 338.025 -9.57Q338.535 -8.775 338.535 -7.6049999999999995Q338.535 -6.465 338.01750000000004 -5.67Q337.5 -4.875 336.6075 -4.4625Q335.71500000000003 -4.05 334.575 -4.05H332.61V0.0ZM332.61 -6.075H334.59000000000003Q335.08500000000004 -6.075 335.44500000000005 -6.27Q335.805 -6.465 336.00750000000005 -6.81Q336.21000000000004 -7.154999999999999 336.21000000000004 -7.6049999999999995Q336.21000000000004 -8.07 336.00750000000005 -8.415Q335.805 -8.76 335.44500000000005 -8.955Q335.08500000000004 -9.15 334.59000000000003 -9.15H332.61ZM342.19500000000005 0.0 345.975 -11.174999999999999H349.06500000000005L352.845 0.0H350.31L349.56 -2.28H345.46500000000003L344.71500000000003 0.0ZM346.11 -4.305H348.915L347.20500000000004 -9.584999999999999H347.83500000000004ZM362.31000000000006 0.18Q361.11000000000007 0.18 360.0825000000001 -0.255Q359.05500000000006 -0.69 358.2900000000001 -1.47Q357.52500000000003 -2.25 357.0975000000001 -3.3Q356.6700000000001 -4.35 356.6700000000001 -5.595Q356.6700000000001 -6.84 357.09000000000003 -7.8975Q357.51000000000005 -8.955 358.27500000000003 -9.7275Q359.04 -10.5 360.0675 -10.9275Q361.095 -11.355 362.31000000000006 -11.355Q363.52500000000003 -11.355 364.49250000000006 -10.95Q365.46000000000004 -10.545 366.13500000000005 -9.870000000000001Q366.81000000000006 -9.195 367.095 -8.37L365.04 -7.38Q364.75500000000005 -8.19 364.0425 -8.7225Q363.33000000000004 -9.254999999999999 362.31000000000006 -9.254999999999999Q361.32000000000005 -9.254999999999999 360.57000000000005 -8.79Q359.82000000000005 -8.325 359.4075 -7.507499999999999Q358.99500000000006 -6.6899999999999995 358.99500000000006 -5.595Q358.99500000000006 -4.5 359.4075 -3.675Q359.82000000000005 -2.85 360.57000000000005 -2.385Q361.32000000000005 -1.92 362.31000000000006 -1.92Q363.33000000000004 -1.92 364.0425 -2.4524999999999997Q364.75500000000005 -2.985 365.04 -3.795L367.095 -2.8049999999999997Q366.81000000000006 -1.98 366.13500000000005 -1.305Q365.46000000000004 -0.63 364.49250000000006 -0.225Q363.52500000000003 0.18 362.31000000000006 0.18ZM371.58000000000004 0.0V-11.174999999999999H379.095V-9.15H373.90500000000003V-6.614999999999999H378.795V-4.59H373.90500000000003V-2.025H379.095V0.0ZM387.48 0.18Q386.43 0.18 385.50750000000005 -0.20249999999999999Q384.58500000000004 -0.585 383.9175 -1.29Q383.25 -1.9949999999999999 382.92 -2.955L384.825 -3.81Q385.245 -2.895 385.9875 -2.37Q386.73 -1.845 387.63 -1.845Q388.11 -1.845 388.45500000000004 -1.995Q388.8 -2.145 388.995 -2.4074999999999998Q389.19 -2.67 389.19 -3.03Q389.19 -3.42 388.95000000000005 -3.6975Q388.71000000000004 -3.9749999999999996 388.2 -4.14L386.01 -4.859999999999999Q384.675 -5.295 384.0 -6.0975Q383.325 -6.8999999999999995 383.325 -8.025Q383.325 -9.014999999999999 383.8125 -9.764999999999999Q384.3 -10.514999999999999 385.1775 -10.934999999999999Q386.055 -11.355 387.195 -11.355Q388.2 -11.355 389.055 -11.01Q389.91 -10.665 390.5325 -10.035Q391.15500000000003 -9.405 391.47 -8.52L389.58 -7.665Q389.265 -8.445 388.635 -8.8875Q388.005 -9.33 387.195 -9.33Q386.73 -9.33 386.37 -9.18Q386.01 -9.03 385.815 -8.7525Q385.62 -8.475 385.62 -8.115Q385.62 -7.725 385.875 -7.432499999999999Q386.13 -7.14 386.64 -6.975L388.785 -6.285Q390.135 -5.85 390.8025 -5.07Q391.47 -4.29 391.47 -3.165Q391.47 -2.19 390.96000000000004 -1.4324999999999999Q390.45 -0.6749999999999999 389.5575 -0.24749999999999997Q388.665 0.18 387.48 0.18Z" fill="#2f8a57"/></svg>
